<mxfile host="app.diagrams.net" agent="Mozilla/5.0 (Windows NT 10.0; Win64; x64) AppleWebKit/537.36 (KHTML, like Gecko) Chrome/130.0.0.0 Safari/537.36" version="24.8.4">
  <diagram id="Ht1M8jgEwFfnCIfOTk4-" name="Page-1">
    <mxGraphModel dx="1674" dy="738" grid="1" gridSize="10" guides="1" tooltips="1" connect="1" arrows="1" fold="1" page="1" pageScale="1" pageWidth="1169" pageHeight="827" math="0" shadow="0">
      <root>
        <mxCell id="0" />
        <mxCell id="1" parent="0" />
        <mxCell id="ybKJJcQsaACYTX53KB4n-4" value="users" style="sketch=0;outlineConnect=0;gradientColor=none;fontColor=#545B64;strokeColor=none;fillColor=#879196;dashed=0;verticalLabelPosition=bottom;verticalAlign=top;align=center;html=1;fontSize=12;fontStyle=0;aspect=fixed;shape=mxgraph.aws4.illustration_users;pointerEvents=1" parent="1" vertex="1">
          <mxGeometry x="120" y="251" width="100" height="100" as="geometry" />
        </mxCell>
        <mxCell id="ybKJJcQsaACYTX53KB4n-15" style="edgeStyle=none;curved=1;rounded=0;orthogonalLoop=1;jettySize=auto;html=1;fontSize=12;startSize=8;endSize=8;" parent="1" source="ybKJJcQsaACYTX53KB4n-4" target="ybKJJcQsaACYTX53KB4n-14" edge="1">
          <mxGeometry relative="1" as="geometry">
            <mxPoint x="398" y="301" as="sourcePoint" />
          </mxGeometry>
        </mxCell>
        <mxCell id="ybKJJcQsaACYTX53KB4n-26" value="" style="group" parent="1" vertex="1" connectable="0">
          <mxGeometry x="280" y="262" width="131" height="102" as="geometry" />
        </mxCell>
        <mxCell id="ybKJJcQsaACYTX53KB4n-14" value="" style="sketch=0;points=[[0,0,0],[0.25,0,0],[0.5,0,0],[0.75,0,0],[1,0,0],[0,1,0],[0.25,1,0],[0.5,1,0],[0.75,1,0],[1,1,0],[0,0.25,0],[0,0.5,0],[0,0.75,0],[1,0.25,0],[1,0.5,0],[1,0.75,0]];outlineConnect=0;fontColor=#232F3E;fillColor=#DD344C;strokeColor=#ffffff;dashed=0;verticalLabelPosition=bottom;verticalAlign=top;align=center;html=1;fontSize=12;fontStyle=0;aspect=fixed;shape=mxgraph.aws4.resourceIcon;resIcon=mxgraph.aws4.waf;" parent="ybKJJcQsaACYTX53KB4n-26" vertex="1">
          <mxGeometry x="26.5" width="78" height="78" as="geometry" />
        </mxCell>
        <mxCell id="ybKJJcQsaACYTX53KB4n-19" value="&lt;font style=&quot;font-size: 13px;&quot;&gt;AWS WAF&lt;/font&gt;" style="text;html=1;align=center;verticalAlign=middle;whiteSpace=wrap;rounded=0;fontSize=16;" parent="ybKJJcQsaACYTX53KB4n-26" vertex="1">
          <mxGeometry y="78" width="131" height="24" as="geometry" />
        </mxCell>
        <mxCell id="ybKJJcQsaACYTX53KB4n-27" value="" style="group" parent="1" vertex="1" connectable="0">
          <mxGeometry x="260" y="466" width="166.5" height="102" as="geometry" />
        </mxCell>
        <mxCell id="ybKJJcQsaACYTX53KB4n-21" value="" style="sketch=0;points=[[0,0,0],[0.25,0,0],[0.5,0,0],[0.75,0,0],[1,0,0],[0,1,0],[0.25,1,0],[0.5,1,0],[0.75,1,0],[1,1,0],[0,0.25,0],[0,0.5,0],[0,0.75,0],[1,0.25,0],[1,0.5,0],[1,0.75,0]];outlineConnect=0;fontColor=#232F3E;fillColor=#8C4FFF;strokeColor=#ffffff;dashed=0;verticalLabelPosition=bottom;verticalAlign=top;align=center;html=1;fontSize=12;fontStyle=0;aspect=fixed;shape=mxgraph.aws4.resourceIcon;resIcon=mxgraph.aws4.elastic_load_balancing;" parent="ybKJJcQsaACYTX53KB4n-27" vertex="1">
          <mxGeometry x="44.25" width="78" height="78" as="geometry" />
        </mxCell>
        <mxCell id="ybKJJcQsaACYTX53KB4n-24" value="&lt;font style=&quot;font-size: 13px;&quot;&gt;Elastic Load Balancing&lt;/font&gt;" style="text;html=1;align=center;verticalAlign=middle;whiteSpace=wrap;rounded=0;fontSize=16;" parent="ybKJJcQsaACYTX53KB4n-27" vertex="1">
          <mxGeometry y="78" width="166.5" height="24" as="geometry" />
        </mxCell>
        <mxCell id="ybKJJcQsaACYTX53KB4n-56" style="edgeStyle=orthogonalEdgeStyle;rounded=0;orthogonalLoop=1;jettySize=auto;html=1;fontSize=12;startSize=8;endSize=8;" parent="1" source="ybKJJcQsaACYTX53KB4n-29" target="ybKJJcQsaACYTX53KB4n-34" edge="1">
          <mxGeometry relative="1" as="geometry">
            <mxPoint x="764.25" y="497.25" as="targetPoint" />
            <mxPoint x="638" y="505" as="sourcePoint" />
            <Array as="points">
              <mxPoint x="620" y="515" />
              <mxPoint x="620" y="629" />
            </Array>
          </mxGeometry>
        </mxCell>
        <mxCell id="ybKJJcQsaACYTX53KB4n-29" value="Auto Scaling group" style="points=[[0,0],[0.25,0],[0.5,0],[0.75,0],[1,0],[1,0.25],[1,0.5],[1,0.75],[1,1],[0.75,1],[0.5,1],[0.25,1],[0,1],[0,0.75],[0,0.5],[0,0.25]];outlineConnect=0;gradientColor=none;html=1;whiteSpace=wrap;fontSize=12;fontStyle=0;container=1;pointerEvents=0;collapsible=0;recursiveResize=0;shape=mxgraph.aws4.groupCenter;grIcon=mxgraph.aws4.group_auto_scaling_group;grStroke=1;strokeColor=#D86613;fillColor=none;verticalAlign=top;align=center;fontColor=#D86613;dashed=1;spacingTop=25;" parent="1" vertex="1">
          <mxGeometry x="460" y="420" width="110" height="190" as="geometry" />
        </mxCell>
        <mxCell id="sf2E-4pgc2xQJt2eGTGF-1" value="" style="sketch=0;outlineConnect=0;fontColor=#232F3E;gradientColor=none;fillColor=#ED7100;strokeColor=none;dashed=0;verticalLabelPosition=bottom;verticalAlign=top;align=center;html=1;fontSize=12;fontStyle=0;aspect=fixed;pointerEvents=1;shape=mxgraph.aws4.g4dn;" vertex="1" parent="ybKJJcQsaACYTX53KB4n-29">
          <mxGeometry x="31" y="120" width="48" height="48" as="geometry" />
        </mxCell>
        <mxCell id="sf2E-4pgc2xQJt2eGTGF-2" value="" style="sketch=0;outlineConnect=0;fontColor=#232F3E;gradientColor=none;fillColor=#ED7100;strokeColor=none;dashed=0;verticalLabelPosition=bottom;verticalAlign=top;align=center;html=1;fontSize=12;fontStyle=0;aspect=fixed;pointerEvents=1;shape=mxgraph.aws4.t3_instance;" vertex="1" parent="ybKJJcQsaACYTX53KB4n-29">
          <mxGeometry x="31" y="60" width="48" height="48" as="geometry" />
        </mxCell>
        <mxCell id="ybKJJcQsaACYTX53KB4n-32" style="edgeStyle=orthogonalEdgeStyle;rounded=0;orthogonalLoop=1;jettySize=auto;html=1;fontSize=12;startSize=8;endSize=8;" parent="1" source="ybKJJcQsaACYTX53KB4n-21" edge="1">
          <mxGeometry relative="1" as="geometry">
            <mxPoint x="454.25" y="505" as="targetPoint" />
          </mxGeometry>
        </mxCell>
        <mxCell id="ybKJJcQsaACYTX53KB4n-43" value="" style="group" parent="1" vertex="1" connectable="0">
          <mxGeometry x="770" y="476" width="100" height="102" as="geometry" />
        </mxCell>
        <mxCell id="ybKJJcQsaACYTX53KB4n-35" value="" style="sketch=0;points=[[0,0,0],[0.25,0,0],[0.5,0,0],[0.75,0,0],[1,0,0],[0,1,0],[0.25,1,0],[0.5,1,0],[0.75,1,0],[1,1,0],[0,0.25,0],[0,0.5,0],[0,0.75,0],[1,0.25,0],[1,0.5,0],[1,0.75,0]];outlineConnect=0;fontColor=#232F3E;fillColor=#7AA116;strokeColor=#ffffff;dashed=0;verticalLabelPosition=bottom;verticalAlign=top;align=center;html=1;fontSize=12;fontStyle=0;aspect=fixed;shape=mxgraph.aws4.resourceIcon;resIcon=mxgraph.aws4.s3;" parent="ybKJJcQsaACYTX53KB4n-43" vertex="1">
          <mxGeometry x="11" width="78" height="78" as="geometry" />
        </mxCell>
        <mxCell id="ybKJJcQsaACYTX53KB4n-39" value="&lt;font style=&quot;font-size: 13px;&quot;&gt;Amazon S3&lt;/font&gt;" style="text;html=1;align=center;verticalAlign=middle;whiteSpace=wrap;rounded=0;fontSize=16;" parent="ybKJJcQsaACYTX53KB4n-43" vertex="1">
          <mxGeometry y="78" width="100" height="24" as="geometry" />
        </mxCell>
        <mxCell id="ybKJJcQsaACYTX53KB4n-44" value="" style="group" parent="1" vertex="1" connectable="0">
          <mxGeometry x="770" y="600" width="90" height="102" as="geometry" />
        </mxCell>
        <mxCell id="ybKJJcQsaACYTX53KB4n-34" value="" style="sketch=0;points=[[0,0,0],[0.25,0,0],[0.5,0,0],[0.75,0,0],[1,0,0],[0,1,0],[0.25,1,0],[0.5,1,0],[0.75,1,0],[1,1,0],[0,0.25,0],[0,0.5,0],[0,0.75,0],[1,0.25,0],[1,0.5,0],[1,0.75,0]];outlineConnect=0;fontColor=#232F3E;fillColor=#C925D1;strokeColor=#ffffff;dashed=0;verticalLabelPosition=bottom;verticalAlign=top;align=center;html=1;fontSize=12;fontStyle=0;aspect=fixed;shape=mxgraph.aws4.resourceIcon;resIcon=mxgraph.aws4.rds;" parent="ybKJJcQsaACYTX53KB4n-44" vertex="1">
          <mxGeometry x="6" width="78" height="78" as="geometry" />
        </mxCell>
        <mxCell id="ybKJJcQsaACYTX53KB4n-40" value="&lt;font style=&quot;font-size: 13px;&quot;&gt;Amazon RDS&lt;/font&gt;" style="text;html=1;align=center;verticalAlign=middle;whiteSpace=wrap;rounded=0;fontSize=16;" parent="ybKJJcQsaACYTX53KB4n-44" vertex="1">
          <mxGeometry y="78" width="90" height="24" as="geometry" />
        </mxCell>
        <mxCell id="ybKJJcQsaACYTX53KB4n-52" value="" style="group" parent="1" vertex="1" connectable="0">
          <mxGeometry x="987.5" y="497.40000000000003" width="60" height="56.60000000000002" as="geometry" />
        </mxCell>
        <mxCell id="ybKJJcQsaACYTX53KB4n-45" value="" style="dashed=0;outlineConnect=0;html=1;align=center;labelPosition=center;verticalLabelPosition=bottom;verticalAlign=top;shape=mxgraph.weblogos.youtube_2;fillColor=#FF2626;gradientColor=#B5171F" parent="ybKJJcQsaACYTX53KB4n-52" vertex="1">
          <mxGeometry x="6.800000000000011" width="46.400000000000006" height="32.6" as="geometry" />
        </mxCell>
        <mxCell id="ybKJJcQsaACYTX53KB4n-51" value="&lt;span style=&quot;font-size: 13px;&quot;&gt;Youtube&lt;/span&gt;" style="text;html=1;align=center;verticalAlign=middle;whiteSpace=wrap;rounded=0;fontSize=16;" parent="ybKJJcQsaACYTX53KB4n-52" vertex="1">
          <mxGeometry y="32.60000000000002" width="60" height="24" as="geometry" />
        </mxCell>
        <mxCell id="ybKJJcQsaACYTX53KB4n-55" value="" style="group" parent="1" vertex="1" connectable="0">
          <mxGeometry x="980" y="584" width="75" height="104" as="geometry" />
        </mxCell>
        <mxCell id="ybKJJcQsaACYTX53KB4n-53" value="" style="dashed=0;outlineConnect=0;html=1;align=center;labelPosition=center;verticalLabelPosition=bottom;verticalAlign=top;shape=mxgraph.weblogos.github" parent="ybKJJcQsaACYTX53KB4n-55" vertex="1">
          <mxGeometry width="75" height="75" as="geometry" />
        </mxCell>
        <mxCell id="ybKJJcQsaACYTX53KB4n-54" value="&lt;font style=&quot;font-size: 13px;&quot;&gt;github&lt;/font&gt;" style="text;html=1;align=center;verticalAlign=middle;whiteSpace=wrap;rounded=0;fontSize=16;" parent="ybKJJcQsaACYTX53KB4n-55" vertex="1">
          <mxGeometry x="7.5" y="80" width="60" height="24" as="geometry" />
        </mxCell>
        <mxCell id="ybKJJcQsaACYTX53KB4n-62" style="edgeStyle=orthogonalEdgeStyle;rounded=0;orthogonalLoop=1;jettySize=auto;html=1;fontSize=12;startSize=8;endSize=8;" parent="1" source="sf2E-4pgc2xQJt2eGTGF-3" target="ybKJJcQsaACYTX53KB4n-29" edge="1">
          <mxGeometry relative="1" as="geometry">
            <mxPoint x="638" y="505" as="targetPoint" />
          </mxGeometry>
        </mxCell>
        <mxCell id="ybKJJcQsaACYTX53KB4n-64" value="" style="sketch=0;points=[[0,0,0],[0.25,0,0],[0.5,0,0],[0.75,0,0],[1,0,0],[0,1,0],[0.25,1,0],[0.5,1,0],[0.75,1,0],[1,1,0],[0,0.25,0],[0,0.5,0],[0,0.75,0],[1,0.25,0],[1,0.5,0],[1,0.75,0]];outlineConnect=0;fontColor=#232F3E;fillColor=#8C4FFF;strokeColor=#ffffff;dashed=0;verticalLabelPosition=bottom;verticalAlign=top;align=center;html=1;fontSize=12;fontStyle=0;aspect=fixed;shape=mxgraph.aws4.resourceIcon;resIcon=mxgraph.aws4.cloudfront;" parent="1" vertex="1">
          <mxGeometry x="490" y="262" width="78" height="78" as="geometry" />
        </mxCell>
        <mxCell id="ybKJJcQsaACYTX53KB4n-65" style="edgeStyle=none;curved=1;rounded=0;orthogonalLoop=1;jettySize=auto;html=1;entryX=0;entryY=0.5;entryDx=0;entryDy=0;entryPerimeter=0;fontSize=12;startSize=8;endSize=8;" parent="1" source="ybKJJcQsaACYTX53KB4n-14" target="ybKJJcQsaACYTX53KB4n-64" edge="1">
          <mxGeometry relative="1" as="geometry" />
        </mxCell>
        <mxCell id="ybKJJcQsaACYTX53KB4n-70" style="edgeStyle=orthogonalEdgeStyle;rounded=0;orthogonalLoop=1;jettySize=auto;html=1;fontSize=12;startSize=8;endSize=8;" parent="1" source="ybKJJcQsaACYTX53KB4n-67" target="ybKJJcQsaACYTX53KB4n-21" edge="1">
          <mxGeometry relative="1" as="geometry">
            <Array as="points">
              <mxPoint x="529" y="390" />
              <mxPoint x="343" y="390" />
            </Array>
          </mxGeometry>
        </mxCell>
        <mxCell id="ybKJJcQsaACYTX53KB4n-67" value="&lt;font style=&quot;font-size: 13px;&quot;&gt;Amazon CloudFront&lt;/font&gt;" style="text;html=1;align=center;verticalAlign=middle;whiteSpace=wrap;rounded=0;fontSize=16;" parent="1" vertex="1">
          <mxGeometry x="463.5" y="340" width="131" height="24" as="geometry" />
        </mxCell>
        <mxCell id="ybKJJcQsaACYTX53KB4n-68" style="edgeStyle=orthogonalEdgeStyle;rounded=0;orthogonalLoop=1;jettySize=auto;html=1;fontSize=12;startSize=8;endSize=8;" parent="1" source="ybKJJcQsaACYTX53KB4n-64" target="ybKJJcQsaACYTX53KB4n-35" edge="1">
          <mxGeometry relative="1" as="geometry">
            <Array as="points">
              <mxPoint x="820" y="301" />
            </Array>
          </mxGeometry>
        </mxCell>
        <mxCell id="ybKJJcQsaACYTX53KB4n-77" style="edgeStyle=none;curved=1;rounded=0;orthogonalLoop=1;jettySize=auto;html=1;entryX=1;entryY=0.5;entryDx=0;entryDy=0;entryPerimeter=0;fontSize=12;startSize=8;endSize=8;" parent="1" source="ybKJJcQsaACYTX53KB4n-45" target="ybKJJcQsaACYTX53KB4n-35" edge="1">
          <mxGeometry relative="1" as="geometry" />
        </mxCell>
        <mxCell id="ybKJJcQsaACYTX53KB4n-78" style="edgeStyle=orthogonalEdgeStyle;rounded=0;orthogonalLoop=1;jettySize=auto;html=1;entryX=1;entryY=0.5;entryDx=0;entryDy=0;entryPerimeter=0;fontSize=12;startSize=8;endSize=8;" parent="1" source="ybKJJcQsaACYTX53KB4n-53" target="ybKJJcQsaACYTX53KB4n-35" edge="1">
          <mxGeometry relative="1" as="geometry" />
        </mxCell>
        <mxCell id="sf2E-4pgc2xQJt2eGTGF-4" value="" style="edgeStyle=orthogonalEdgeStyle;rounded=0;orthogonalLoop=1;jettySize=auto;html=1;entryX=1;entryY=0.5;entryDx=0;entryDy=0;entryPerimeter=0;fontSize=12;startSize=8;endSize=8;" edge="1" parent="1" source="ybKJJcQsaACYTX53KB4n-35" target="sf2E-4pgc2xQJt2eGTGF-3">
          <mxGeometry relative="1" as="geometry">
            <mxPoint x="781" y="505" as="sourcePoint" />
            <mxPoint x="568" y="505" as="targetPoint" />
            <Array as="points">
              <mxPoint x="770" y="515" />
              <mxPoint x="770" y="515" />
            </Array>
          </mxGeometry>
        </mxCell>
        <mxCell id="sf2E-4pgc2xQJt2eGTGF-3" value="" style="sketch=0;points=[[0,0,0],[0.25,0,0],[0.5,0,0],[0.75,0,0],[1,0,0],[0,1,0],[0.25,1,0],[0.5,1,0],[0.75,1,0],[1,1,0],[0,0.25,0],[0,0.5,0],[0,0.75,0],[1,0.25,0],[1,0.5,0],[1,0.75,0]];outlineConnect=0;fontColor=#232F3E;fillColor=#ED7100;strokeColor=#ffffff;dashed=0;verticalLabelPosition=bottom;verticalAlign=top;align=center;html=1;fontSize=12;fontStyle=0;aspect=fixed;shape=mxgraph.aws4.resourceIcon;resIcon=mxgraph.aws4.lambda;" vertex="1" parent="1">
          <mxGeometry x="650" y="476" width="78" height="78" as="geometry" />
        </mxCell>
      </root>
    </mxGraphModel>
  </diagram>
</mxfile>
